<svg width="16" height="16" viewBox="0 0 16 16" fill="none" xmlns="http://www.w3.org/2000/svg">
    <path
        d="M8.88959 0H8.46208L8.04984 0.31754C8.67074 1.17439 9.13897 2.16734 9.45451 3.29637C9.70897 4.23387 9.83621 5.22177 9.83621 6.26008C9.83621 7.37903 9.66826 8.4627 9.33236 9.51109C9.04736 10.3982 8.61985 11.2651 8.04984 12.1119L8.46208 12.4294H8.88959C9.6021 11.623 10.1365 10.6754 10.4927 9.58669C10.8388 8.54839 11.0119 7.44456 11.0119 6.2752C11.0119 5.09577 10.8388 3.97681 10.4927 2.91835C10.1365 1.80948 9.6021 0.836694 8.88959 0Z"
        fill="#CCCCCC" />
    <path fill-rule="evenodd" clip-rule="evenodd"
        d="M5.78662 14.0625H7.0386V3.05444H5.92403V4.12802C5.32349 3.29133 4.48883 2.87298 3.42006 2.87298C2.45308 2.87298 1.66423 3.20564 1.0535 3.87097C0.351167 4.64718 0 5.71573 0 7.07661C0 8.20564 0.259558 9.11794 0.778674 9.81351C1.3894 10.5998 2.25459 10.9929 3.37426 10.9929C4.42267 10.9929 5.22679 10.5998 5.78662 9.81351V14.0625ZM1.92378 4.85383C2.35129 4.30948 2.90603 4.0373 3.58801 4.0373C4.20891 4.0373 4.71785 4.26915 5.11482 4.73286C5.56269 5.27722 5.78662 6.02823 5.78662 6.98589C5.78662 7.85282 5.58813 8.54335 5.19116 9.05746C4.79419 9.57157 4.2649 9.82863 3.60328 9.82863C2.95184 9.82863 2.42254 9.60181 2.01539 9.14819C1.53699 8.62399 1.29779 7.90323 1.29779 6.98589C1.29779 6.09879 1.50645 5.3881 1.92378 4.85383Z"
        fill="#CCCCCC" />
    <path d="M14.0625 15V12.1875H11.25V11.25H14.0625V8.4375H15V11.25H17.8125V12.1875H15V15H14.0625Z"
        fill="#CCCCCC" />
</svg>
    