<svg width="16" height="16" viewBox="0 0 16 16" fill="none" xmlns="http://www.w3.org/2000/svg">
    <path
        d="M3.14622 12.9332C4.04306 13.4847 5.09308 13.7604 6.2963 13.7604C6.60818 13.7604 6.90977 13.7419 7.20107 13.7048L8.41642 15.5001H10.7842L6.60299 9.32358H4.23517L5.79803 11.6322C5.23456 11.5607 4.75169 11.3649 4.34943 11.0448C3.83695 10.6326 3.45538 10.0839 3.20471 9.39876C2.95961 8.71359 2.83706 7.9588 2.83706 7.13438C2.83706 6.31552 2.95961 5.56352 3.20471 4.87835C3.45538 4.18762 3.83695 3.63336 4.34943 3.21558C4.86748 2.7978 5.51922 2.58891 6.30465 2.58891C7.08451 2.58891 7.73068 2.7978 8.24316 3.21558C8.75564 3.63336 9.13443 4.18762 9.37953 4.87835C9.6302 5.56352 9.75553 6.31552 9.75553 7.13438C9.75553 7.21113 9.75445 7.28728 9.75227 7.36283H12.2766C12.2782 7.28998 12.2789 7.21662 12.2789 7.14273C12.2789 5.8114 12.0311 4.64718 11.5353 3.65008C11.0395 2.65297 10.3432 1.87868 9.44637 1.32721C8.54953 0.775736 7.49951 0.5 6.2963 0.5C5.09308 0.5 4.04306 0.775736 3.14622 1.32721C2.24938 1.87868 1.55308 2.65297 1.05731 3.65008C0.561544 4.64718 0.31366 5.8114 0.31366 7.14273C0.31366 8.46849 0.561544 9.62714 1.05731 10.6187C1.55308 11.6102 2.24938 12.3817 3.14622 12.9332Z"
        fill="#CCCCCC" />
    <path
        d="M12.0785 15.2059V12.2153H9.13724V11.2843H12.0785V8.34314H13.0095V11.2843H16V12.2153H13.0095V15.2059H12.0785Z"
        fill="#CCCCCC" />
</svg>
    