<svg width="16" height="16" viewBox="0 0 16 16" fill="none" xmlns="http://www.w3.org/2000/svg">
    <path fill-rule="evenodd" clip-rule="evenodd"
        d="M6.7691 1C3.30751 1 3.52364 2.50912 3.52364 2.50912L3.52773 4.07251H6.83114V4.54193H2.21522C2.21522 4.54193 0 4.289 0 7.8002C0 11.3114 1.93364 11.1877 1.93364 11.1877H3.08728V9.55768C3.08728 9.55768 3.02523 7.61477 4.99023 7.61477H8.26636C8.26636 7.61477 10.1073 7.64398 10.1073 5.82566V2.81974C10.1073 2.81974 10.3868 1 6.7691 1ZM4.94795 2.05136C5.27658 2.05136 5.54181 2.31859 5.54181 2.64895C5.54181 2.9793 5.27658 3.24587 4.94795 3.24587C4.61931 3.24587 4.35342 2.9793 4.35342 2.64895C4.35342 2.31859 4.61931 2.05136 4.94795 2.05136Z"
        fill="#CCCCCC" />
    <path fill-rule="evenodd" clip-rule="evenodd"
        d="M6.86727 14.6364C10.3295 14.6364 10.1134 13.1272 10.1134 13.1272L10.1128 12.8926C9.82173 12.5157 9.62713 12.0604 9.56602 11.5639H6.80591V11.0944H9.54863C9.61791 9.6499 10.811 8.5 12.2727 8.5C12.7414 8.5 13.1824 8.6182 13.5676 8.82641C13.6117 8.53507 13.6364 8.20656 13.6364 7.83616C13.6364 4.32495 11.7034 4.44871 11.7034 4.44871H10.5491V6.07868C10.5491 6.07868 10.6111 8.0216 8.64682 8.0216H5.37C5.37 8.0216 3.52909 7.99238 3.52909 9.8107V12.8166C3.52909 12.8166 3.24954 14.6364 6.86727 14.6364ZM8.68908 13.585C8.36045 13.585 8.09455 13.3178 8.09455 12.9874C8.09455 12.6571 8.36045 12.3905 8.68908 12.3905C9.01772 12.3905 9.28363 12.6571 9.28363 12.9874C9.28363 13.3178 9.01772 13.585 8.68908 13.585Z"
        fill="#CCCCCC" />
    <path
        d="M13.3512 16V13.2273H10.6239V12.4091H13.3512V9.63636H14.1694V12.4091H16.9876V13.2273H14.1694V16H13.3512Z"
        fill="#CCCCCC" />
</svg>
    