<svg width="24" height="24" viewBox="0 0 24 24" fill="none" xmlns="http://www.w3.org/2000/svg">
    <mask id="mask0_1375_116" style="mask-type:alpha" maskUnits="userSpaceOnUse" x="0" y="0"
        width="24" height="24">
        <rect width="24" height="24" fill="#D9D9D9" />
    </mask>
    <g mask="url(#mask0_1375_116)">
        <path
            d="M18.7813 15.375V13.4999H21.3126C21.5813 13.4999 21.8047 13.589 21.9828 13.7671C22.1609 13.9452 22.25 14.1687 22.25 14.4376C22.25 14.6937 22.1609 14.914 21.9828 15.0985C21.8047 15.2828 21.5813 15.375 21.3126 15.375H18.7813ZM18.7813 19.875V17.9999H21.3126C21.5813 17.9999 21.8047 18.089 21.9828 18.2671C22.1609 18.4452 22.25 18.6687 22.25 18.9376C22.25 19.1937 22.1609 19.414 21.9828 19.5985C21.8047 19.7828 21.5813 19.875 21.3126 19.875H18.7813ZM14.375 21C13.8063 21 13.3204 20.7797 12.9173 20.3391C12.5142 19.8984 12.3126 19.3687 12.3126 18.75H9.78134V14.6249H12.3126C12.3126 14.0062 12.5142 13.4765 12.9173 13.0358C13.3204 12.5952 13.8063 12.3749 14.375 12.3749H17.8437V21H14.375ZM6.40634 17.625C5.15628 17.625 4.10938 17.2062 3.26562 16.3687C2.42188 15.5313 2 14.4813 2 13.2187C2 11.9562 2.42188 10.9062 3.26562 10.0687C4.10938 9.23128 5.15628 8.81259 6.40634 8.81259H8.1875C8.75619 8.81259 9.22653 8.62659 9.59853 8.25459C9.97034 7.88278 10.1563 7.41253 10.1563 6.84384C10.1563 6.27497 9.97034 5.80462 9.59853 5.43281C9.22653 5.061 8.75619 4.87509 8.1875 4.87509H4.06241C3.80628 4.87509 3.58597 4.78284 3.40147 4.59834C3.21716 4.41403 3.125 4.19372 3.125 3.93741C3.125 3.66872 3.21716 3.44531 3.40147 3.26719C3.58597 3.08906 3.80628 3 4.06241 3H8.1875C9.275 3 10.1875 3.36872 10.9249 4.10616C11.6625 4.84378 12.0313 5.75634 12.0313 6.84384C12.0313 7.93134 11.6625 8.84381 10.9249 9.58125C10.1875 10.3187 9.275 10.6874 8.1875 10.6874H6.40634C5.67509 10.6874 5.07041 10.9234 4.59228 11.3953C4.11416 11.8672 3.87509 12.475 3.87509 13.2187C3.87509 13.9625 4.11416 14.5703 4.59228 15.0423C5.07041 15.514 5.67509 15.7499 6.40634 15.7499H8.84366V17.625H6.40634Z"
            fill="#CCCCCC" />
    </g>
</svg>