<svg width="24" height="24" viewBox="0 0 24 24" fill="none" xmlns="http://www.w3.org/2000/svg">
<mask id="mask0_1659_76" style="mask-type:alpha" maskUnits="userSpaceOnUse" x="0" y="0" width="24" height="24">
<rect width="24" height="24" fill="#D9D9D9"/>
</mask>
<g mask="url(#mask0_1659_76)">
<path d="M5.53817 14.1808H6.49417L6.92628 12.649H9.00309L9.46001 14.1808H10.3958L8.45035 7.86462H7.48043L5.53817 14.1808ZM7.20608 11.6925L7.94663 9.1374H7.98556L8.72955 11.6925H7.20608ZM13.6138 9.76877V8.43038C14.0576 8.20189 14.5115 8.03052 14.9755 7.91627C15.4395 7.80203 15.927 7.7449 16.4381 7.7449C16.7877 7.7449 17.1307 7.77755 17.4669 7.84283C17.8031 7.90811 18.1326 7.98972 18.4554 8.08764V9.32811C18.1326 9.18122 17.8065 9.07106 17.477 8.99761C17.1475 8.92417 16.8012 8.88745 16.4381 8.88745C15.927 8.88745 15.4361 8.96497 14.9654 9.12002C14.4947 9.27507 14.0442 9.49132 13.6138 9.76877ZM13.6138 15.1547V13.7999C14.0576 13.5769 14.5115 13.4096 14.9755 13.298C15.4395 13.1865 15.927 13.1308 16.4381 13.1308C16.7877 13.1308 17.1307 13.1634 17.4669 13.2287C17.8031 13.294 18.1326 13.3756 18.4554 13.4735V14.714C18.1326 14.5671 17.8065 14.4569 17.477 14.3835C17.1475 14.3101 16.8012 14.2733 16.4381 14.2733C15.927 14.2733 15.4361 14.3468 14.9654 14.4937C14.4947 14.6406 14.0442 14.8609 13.6138 15.1547ZM13.6138 12.4617V11.1233C14.0576 10.8948 14.5115 10.7235 14.9755 10.6092C15.4395 10.495 15.927 10.4378 16.4381 10.4378C16.7877 10.4378 17.1307 10.4705 17.4669 10.5358C17.8031 10.6011 18.1326 10.6827 18.4554 10.7806V12.0211C18.1326 11.8742 17.8065 11.764 17.477 11.6906C17.1475 11.6171 16.8012 11.5804 16.4381 11.5804C15.927 11.5804 15.4361 11.6579 14.9654 11.813C14.4947 11.968 14.0442 12.1843 13.6138 12.4617ZM7.40055 16.2318C8.09154 16.2318 8.76411 16.3284 9.41825 16.5215C10.0725 16.7145 10.7179 17.0042 11.3545 17.3905V7.20632C10.7672 6.74933 10.1345 6.39843 9.45658 6.15362C8.77863 5.90881 8.09329 5.7864 7.40055 5.7864C6.89851 5.7864 6.40427 5.85715 5.91783 5.99865C5.43139 6.13999 4.94838 6.32491 4.4688 6.5534V16.8684C4.9036 16.6506 5.37538 16.4901 5.88414 16.3868C6.39304 16.2835 6.89851 16.2318 7.40055 16.2318ZM12.6994 17.3905C13.3449 17.0042 13.9826 16.7145 14.6124 16.5215C15.2422 16.3284 15.9046 16.2318 16.5995 16.2318C17.1015 16.2318 17.6114 16.2808 18.1292 16.3787C18.6469 16.4767 19.1143 16.6126 19.5312 16.7866V6.5534C19.0785 6.28965 18.603 6.09593 18.1048 5.97221C17.6065 5.84834 17.1047 5.7864 16.5995 5.7864C15.9046 5.7864 15.2276 5.90881 14.5686 6.15362C13.9096 6.39843 13.2866 6.74933 12.6994 7.20632V17.3905ZM12.0387 20C11.3627 19.3836 10.6305 18.9002 9.84229 18.55C9.05393 18.1997 8.24001 18.0246 7.40055 18.0246C6.89353 18.0246 6.39553 18.1044 5.90653 18.264C5.41754 18.4238 4.93641 18.6249 4.46315 18.8672C4.12545 19.0716 3.79717 19.0532 3.4783 18.8122C3.15943 18.5713 3 18.2207 3 17.7604V6.27652C3 6.00918 3.05097 5.76159 3.15291 5.53375C3.25472 5.30591 3.40756 5.13095 3.61144 5.00887C4.20063 4.6632 4.81241 4.40867 5.44679 4.2453C6.08116 4.08177 6.72852 4 7.38885 4C8.21823 4 9.02515 4.13399 9.80961 4.40198C10.5941 4.66981 11.3331 5.08028 12.0268 5.63339C12.7127 5.08419 13.4431 4.6747 14.218 4.40492C14.9929 4.13497 15.7906 4 16.6112 4C17.2685 4 17.9129 4.08275 18.5443 4.24824C19.1758 4.41357 19.7861 4.66711 20.3752 5.00887C20.579 5.13095 20.7341 5.30591 20.8404 5.53375C20.9468 5.76159 21 6.00918 21 6.27652V17.8327C21 18.2991 20.8367 18.6477 20.51 18.8785C20.1833 19.1093 19.8544 19.1055 19.5233 18.8672C19.0591 18.6139 18.5825 18.4102 18.0935 18.256C17.6045 18.1017 17.1065 18.0246 16.5995 18.0246C15.7651 18.0246 14.9646 18.2034 14.1981 18.561C13.4313 18.9187 12.7116 19.3984 12.0387 20Z" fill="#CCCCCC"/>
</g>
</svg>
