<svg width="20" height="20" viewBox="0 0 20 20" fill="none" xmlns="http://www.w3.org/2000/svg">
    <path fill-rule="evenodd" clip-rule="evenodd"
        d="M10 4.18421C7.85223 4.18421 6.11111 6.03987 6.11111 8.32895C6.11111 9.71994 6.75349 10.951 7.74178 11.7037C8.07846 11.9602 8.33333 12.3846 8.33333 12.8874V14.25C8.33333 14.359 8.41624 14.4474 8.51852 14.4474H11.4815C11.5838 14.4474 11.6667 14.359 11.6667 14.25V12.8874C11.6667 12.3846 11.9215 11.9602 12.2582 11.7037C13.2465 10.951 13.8889 9.71994 13.8889 8.32895C13.8889 6.03987 12.1478 4.18421 10 4.18421ZM5 8.32895C5 5.38585 7.23858 3 10 3C12.7614 3 15 5.38585 15 8.32895C15 10.1184 14.1719 11.7018 12.9042 12.6672C12.8107 12.7385 12.7778 12.8267 12.7778 12.8874V14.25C12.7778 15.013 12.1974 15.6316 11.4815 15.6316H8.51852C7.80259 15.6316 7.22222 15.013 7.22222 14.25V12.8874C7.22222 12.8267 7.18934 12.7385 7.09576 12.6672C5.82813 11.7018 5 10.1184 5 8.32895ZM7.22222 17.4079C7.22222 17.0809 7.47095 16.8158 7.77778 16.8158H12.2222C12.529 16.8158 12.7778 17.0809 12.7778 17.4079C12.7778 17.7349 12.529 18 12.2222 18H7.77778C7.47095 18 7.22222 17.7349 7.22222 17.4079Z"
        fill="#CCCCCC" />
</svg>