<svg width="24" height="24" viewBox="0 0 24 24" fill="none" xmlns="http://www.w3.org/2000/svg">
    <mask id="mask0_1375_74" style="mask-type:alpha" maskUnits="userSpaceOnUse" x="0" y="0"
        width="24" height="24">
        <rect width="24" height="24" fill="#D9D9D9" />
    </mask>
    <g mask="url(#mask0_1375_74)">
        <path
            d="M10.9592 16.4757H13.0408V11.1413H10.9592V16.4757ZM12 9.66638C12.312 9.66638 12.5736 9.56083 12.7847 9.34972C12.9958 9.13861 13.1013 8.87706 13.1013 8.56505C13.1013 8.25304 12.9958 7.99148 12.7847 7.78038C12.5736 7.56927 12.312 7.46372 12 7.46372C11.688 7.46372 11.4264 7.56927 11.2153 7.78038C11.0042 7.99148 10.8987 8.25304 10.8987 8.56505C10.8987 8.87706 11.0042 9.13861 11.2153 9.34972C11.4264 9.56083 11.688 9.66638 12 9.66638ZM12 21C10.7474 21 9.57442 20.7641 8.48111 20.2924C7.38794 19.8207 6.43703 19.1804 5.62838 18.3716C4.81959 17.563 4.17933 16.6121 3.7076 15.5189C3.23587 14.4256 3 13.2526 3 12C3 10.7474 3.23587 9.57442 3.7076 8.48111C4.17933 7.38794 4.81959 6.43703 5.62838 5.62838C6.43703 4.81959 7.38794 4.17933 8.48111 3.7076C9.57442 3.23587 10.7474 3 12 3C13.2526 3 14.4256 3.23587 15.5189 3.7076C16.6121 4.17933 17.563 4.81959 18.3716 5.62838C19.1804 6.43703 19.8207 7.38794 20.2924 8.48111C20.7641 9.57442 21 10.7474 21 12C21 13.2526 20.7641 14.4256 20.2924 15.5189C19.8207 16.6121 19.1804 17.563 18.3716 18.3716C17.563 19.1804 16.6121 19.8207 15.5189 20.2924C14.4256 20.7641 13.2526 21 12 21ZM12 18.7243C13.8855 18.7243 15.4776 18.075 16.7763 16.7763C18.075 15.4776 18.7243 13.8855 18.7243 12C18.7243 10.1145 18.075 8.5224 16.7763 7.2237C15.4776 5.925 13.8855 5.27566 12 5.27566C10.1145 5.27566 8.5224 5.925 7.2237 7.2237C5.925 8.5224 5.27566 10.1145 5.27566 12C5.27566 13.8855 5.925 15.4776 7.2237 16.7763C8.5224 18.075 10.1145 18.7243 12 18.7243Z"
            fill="#CCCCCC" />
    </g>
</svg>