<svg width="24" height="24" viewBox="0 0 24 24" fill="none" xmlns="http://www.w3.org/2000/svg">
<path d="M17 2C17.55 2 18.0204 2.19622 18.4121 2.58789C18.8038 2.97956 19 3.45 19 4V14H17V4H15V11L12.5 9.5L10 11V4H5V20H8V22H5C4.45 22 3.97956 21.8038 3.58789 21.4121C3.19622 21.0204 3 20.55 3 20V4C3 3.45 3.19622 2.97956 3.58789 2.58789C3.97956 2.19622 4.45 2 5 2H17Z" fill="#CCCCCC"/>
<path d="M9 21.1282H10.7872V15H9V21.1282Z" fill="#CCCCCC"/>
<path d="M12.8298 15L10.7872 18.0637L12.8298 21.1282H14.8724L12.8298 18.0637L14.8724 15H12.8298Z" fill="#CCCCCC"/>
<path d="M18.9575 15L17.9362 16.5319L16.915 15H14.8724L16.915 18.0638L14.8724 21.1282H16.915L17.9362 19.5963L18.9575 21.1282H21L18.9575 18.0638L21 15L18.9575 15Z" fill="#CCCCCC"/>
</svg>
