<svg id="Layer_1" data-name="Layer 1" xmlns="http://www.w3.org/2000/svg" viewBox="0 0 16 16">
    <defs>
        <style>.cls-1{fill:#c1d9ef;}.cls-2{fill:#1b4a68;}</style>
    </defs>
    <title>icon</title>
    <rect class="cls-1" x="0.5" y="0.5" width="14" height="14" />
    <path class="cls-2" d="M14,1V14H1V1H14m1-1H0V15H15V0Z" />
    <path class="cls-2"
        d="M4.23,6.34A4.13,4.13,0,0,1,6.58,4.93c.48,0,.77.41,1,1.1L8,6.87C9.39,5.42,10,4.93,10.66,4.93s.75.28.75.59-.54.77-.84.77a.38.38,0,0,1-.3-.15c-.18-.18-.27-.28-.5-.28S9,6.19,8.06,7.17l.69,1.58c.23.54.45.87.71.87s.59-.17,1.23-.69l.15.16a4.06,4.06,0,0,1-2.55,1.48c-.59,0-.84-.42-1.14-1.14l-.46-1.1C5,10,4.53,10.57,3.71,10.57A.62.62,0,0,1,3,10a1.05,1.05,0,0,1,.89-.83c.29,0,.43.4.71.4s.91-.4,2-1.51L6.08,6.88C5.78,6.15,5.62,6,5.42,6s-.48.06-1,.54Z" />
</svg>