<svg width="24" height="24" viewBox="0 0 24 24" fill="none" xmlns="http://www.w3.org/2000/svg">
<mask id="mask0_1376_72" style="mask-type:alpha" maskUnits="userSpaceOnUse" x="0" y="0" width="24" height="24">
<rect width="24" height="24" fill="#D9D9D9"/>
</mask>
<g mask="url(#mask0_1376_72)">
<path fill-rule="evenodd" clip-rule="evenodd" d="M8.46251 15.7106V14.1322H15.0578C15.2954 14.7166 15.6278 15.2496 16.0351 15.7106H8.46251ZM14.8324 10.5439C14.9829 9.97573 15.2192 9.44432 15.526 8.9655H8.46251V10.5439H14.8324ZM8.46251 5.36316V3.78501H18.4647V5.36316H8.46251ZM4.60568 16.4956C4.16369 16.4956 3.78561 16.3445 3.47145 16.0423C3.15715 15.74 3 15.3684 3 14.9272C3 14.4881 3.15532 14.1149 3.46597 13.8079C3.77647 13.5008 4.15483 13.3472 4.60104 13.3472C5.04711 13.3472 5.42251 13.5029 5.72725 13.8141C6.03199 14.1254 6.18436 14.4995 6.18436 14.9366C6.18436 15.3661 6.02974 15.7332 5.7205 16.0381C5.4114 16.3431 5.03979 16.4956 4.60568 16.4956ZM4.60568 11.3289C4.16369 11.3289 3.78561 11.1746 3.47145 10.8659C3.15715 10.5575 3 10.1866 3 9.75343C3 9.32009 3.1575 8.9496 3.47251 8.64195C3.78765 8.33431 4.16615 8.18049 4.608 8.18049C5.04211 8.18049 5.41337 8.33479 5.72176 8.64341C6.03016 8.95189 6.18436 9.32272 6.18436 9.75593C6.18436 10.1893 6.02974 10.5598 5.7205 10.8674C5.4114 11.175 5.03979 11.3289 4.60568 11.3289ZM4.59154 6.14817C4.15349 6.14817 3.77872 5.99393 3.46723 5.68545C3.15574 5.37684 3 5.00593 3 4.57273C3 4.13939 3.15617 3.76897 3.4685 3.46146C3.78083 3.15382 4.15595 3 4.59387 3C5.03192 3 5.40648 3.15424 5.71754 3.46271C6.02875 3.77119 6.18436 4.1421 6.18436 4.57544C6.18436 5.00864 6.0284 5.37906 5.71649 5.6867C5.40458 5.99435 5.0296 6.14817 4.59154 6.14817ZM17.8944 19.5571L19.3047 20.9994L21.1851 19.0763L19.7748 17.634L21.1851 16.1917L20.0098 14.9897C20.621 14.7493 21.1263 14.3487 21.5259 13.7878C21.9255 13.2269 22.1253 12.5858 22.1253 11.8647C22.1253 10.9352 21.804 10.1419 21.1616 9.48484C20.5191 8.82778 19.7435 8.49925 18.8346 8.49925C17.9258 8.49925 17.1501 8.82778 16.5076 9.48484C15.8652 10.1419 15.5439 10.9352 15.5439 11.8647C15.5439 12.6339 15.7633 13.311 16.2021 13.896C16.6408 14.4809 17.2049 14.8775 17.8944 15.0859V19.5571ZM19.5045 12.069C19.3243 12.2533 19.101 12.3455 18.8346 12.3455C18.5682 12.3455 18.3449 12.2533 18.1647 12.069C17.9845 11.8847 17.8944 11.6563 17.8944 11.3839C17.8944 11.1115 17.9845 10.8831 18.1647 10.6988C18.3449 10.5145 18.5682 10.4224 18.8346 10.4224C19.101 10.4224 19.3243 10.5145 19.5045 10.6988C19.6847 10.8831 19.7748 11.1115 19.7748 11.3839C19.7748 11.6563 19.6847 11.8847 19.5045 12.069Z" fill="#CCCCCC"/>
</g>
</svg>
