<svg width="24" height="24" viewBox="0 0 24 24" fill="none" xmlns="http://www.w3.org/2000/svg">
    <mask id="mask0_1659_94" style="mask-type:alpha" maskUnits="userSpaceOnUse" x="0" y="0"
        width="24" height="24">
        <rect width="24" height="24" fill="#252526" />
    </mask>
    <g mask="url(#mask0_1659_94)">
        <path
            d="M3 17V7C3 6.45 3.19611 5.97917 3.58832 5.5875C3.98053 5.19583 4.45202 5 5.00278 5H18.9972C19.548 5 20.0195 5.19583 20.4117 5.5875C20.8039 5.97917 21 6.45 21 7V17C21 17.55 20.8039 18.0208 20.4117 18.4125C20.0195 18.8042 19.548 19 18.9972 19H5.00278C4.45202 19 3.98053 18.8042 3.58832 18.4125C3.19611 18.0208 3 17.55 3 17ZM4.97775 17H8.30737V7H4.97775V17ZM10.3102 17H13.6398V7H10.3102V17ZM15.6426 17H18.9722V7H15.6426V17Z"
            fill="#CCCCCC" />
    </g>
</svg>