<svg width="22" height="16" viewBox="0 0 22 16" fill="none" xmlns="http://www.w3.org/2000/svg">
    <path fill-rule="evenodd" clip-rule="evenodd"
        d="M0 2.67615V2.67102C0 2.24085 0.288026 1.90411 0.627622 1.66154C0.976386 1.41274 1.45388 1.20572 2.0074 1.0379C2.4486 0.90489 2.95208 0.792767 3.50253 0.705926C4.34102 0.57365 5.28799 0.5 6.28577 0.5C7.93829 0.5 9.451 0.702262 10.5641 1.0379C11.1177 1.20572 11.5952 1.41274 11.9439 1.66154C12.2835 1.90411 12.5715 2.24085 12.5715 2.67102V5.089H14.3975C14.5384 5.089 14.6702 5.01682 14.7432 4.8992L15.537 3.63323C15.757 3.2811 16.1512 3.06565 16.5753 3.06565H17.5849C17.7682 2.27419 18.4952 1.68426 19.3642 1.68426C20.3719 1.68426 21.189 2.47938 21.189 3.46065C21.189 4.44154 20.3719 5.23667 19.3642 5.23667C18.4952 5.23667 17.7682 4.64674 17.5849 3.85528H16.5753C16.4343 3.85528 16.3025 3.9271 16.2295 4.04471L15.4358 5.31068C15.2157 5.66318 14.8211 5.87826 14.3975 5.87826H12.5715V7.99982H18.3959C18.5792 7.20836 19.3062 6.61843 20.1752 6.61843C21.1829 6.61843 22 7.41392 22 8.39481C22 9.37571 21.1829 10.1708 20.1752 10.1708C19.3062 10.1708 18.5792 9.5809 18.3959 8.78944H12.5715V10.9605H14.3975C14.8211 10.9605 15.2157 11.1755 15.4358 11.528L16.2295 12.794C16.3025 12.9116 16.4343 12.9834 16.5753 12.9834H17.5849C17.7682 12.192 18.4952 11.6021 19.3642 11.6021C20.3719 11.6021 21.189 12.3972 21.189 13.3781C21.189 14.3593 20.3719 15.1545 19.3642 15.1545C18.4952 15.1545 17.7682 14.5645 17.5849 13.7731H16.5753C16.1512 13.7731 15.757 13.558 15.537 13.2055L14.7432 11.9395C14.6702 11.8219 14.5384 11.7501 14.3975 11.7501H12.5715V13.329C12.5715 13.7592 12.2835 14.0955 11.9439 14.3385C11.5952 14.5873 11.1177 14.7943 10.5641 14.9621C9.451 15.2977 7.93829 15.5 6.28577 15.5C4.63325 15.5 3.12092 15.2977 2.0074 14.9621C1.45388 14.7943 0.976386 14.5873 0.627622 14.3385C0.288026 14.0955 0 13.7592 0 13.329V2.67615ZM0.811363 2.67102C0.811363 2.61093 0.853 2.48048 1.10741 2.29801C1.35456 2.12139 1.73771 1.94588 2.24767 1.79162C3.26379 1.48493 4.69131 1.28926 6.28615 1.28926C7.88099 1.28926 9.30852 1.48493 10.3242 1.79162C10.8342 1.94551 11.2174 2.12139 11.4649 2.29801C11.7193 2.48048 11.7609 2.61093 11.7609 2.67102C11.7609 2.73111 11.7193 2.86156 11.4649 3.04403C11.2174 3.22064 10.8342 3.39652 10.3242 3.55042C9.30852 3.85711 7.88099 4.05278 6.28615 4.05278C4.69131 4.05278 3.26379 3.85711 2.24767 3.55042C1.73771 3.39652 1.35456 3.22064 1.10741 3.04403C0.85491 2.86339 0.812127 2.73331 0.811363 2.67285V2.67102ZM11.7606 3.80105V6.0263C11.7606 6.08639 11.7193 6.21683 11.4649 6.39931C11.2174 6.57592 10.8342 6.7518 10.3242 6.9057C9.30813 7.21239 7.88099 7.40805 6.28615 7.40805C4.69093 7.40805 3.26379 7.21239 2.24767 6.9057C1.73771 6.7518 1.35456 6.57592 1.10741 6.39931C0.85491 6.21867 0.812127 6.08859 0.811363 6.02849V3.80105C1.13682 3.99745 1.54518 4.16417 2.0074 4.30414C3.12054 4.63978 4.63325 4.84204 6.28577 4.84204C7.93829 4.84204 9.451 4.63978 10.5641 4.30414C11.0264 4.16417 11.4351 3.99745 11.7606 3.80105ZM0.811363 9.57907V7.15633C1.13682 7.35273 1.54518 7.51944 2.0074 7.65942C3.12092 7.99505 4.63325 8.19732 6.28577 8.19732C7.93829 8.19732 9.451 7.99505 10.5641 7.65942C11.0264 7.51944 11.4351 7.35273 11.7606 7.15633V9.57907C11.7606 9.63916 11.7189 9.76961 11.4645 9.95209C11.217 10.1287 10.8338 10.3042 10.3239 10.4581C9.30813 10.7652 7.88061 10.9605 6.28577 10.9605C4.69093 10.9605 3.2634 10.7652 2.24729 10.4581C1.73771 10.3042 1.35418 10.1287 1.10703 9.95209C0.852618 9.76961 0.811363 9.63916 0.811363 9.57907ZM11.7606 10.7091C11.4355 10.9055 11.0267 11.0722 10.5645 11.2122C9.45138 11.5478 7.93867 11.7501 6.28615 11.7501C4.63363 11.7501 3.12092 11.5478 2.00778 11.2122C1.54556 11.0722 1.13682 10.9055 0.811745 10.7091V13.329C0.811745 13.3891 0.853 13.5195 1.10741 13.702C1.35495 13.8786 1.73809 14.0545 2.24806 14.2084C3.26417 14.5151 4.69131 14.7107 6.28615 14.7107C7.88137 14.7107 9.30852 14.5151 10.3246 14.2084C10.8346 14.0545 11.2177 13.8786 11.4649 13.702C11.7197 13.5195 11.7609 13.3891 11.7609 13.329L11.7606 10.7091ZM19.3646 4.44741C18.805 4.44741 18.3508 4.00514 18.3508 3.46065C18.3508 2.91579 18.805 2.47389 19.3646 2.47389C19.9242 2.47389 20.3784 2.91579 20.3784 3.46065C20.3784 4.00514 19.9242 4.44741 19.3646 4.44741ZM19.1618 8.39481C19.1618 8.93968 19.616 9.38157 20.1756 9.38157C20.7352 9.38157 21.1894 8.93968 21.1894 8.39481C21.1894 7.84995 20.7352 7.40805 20.1756 7.40805C19.616 7.40805 19.1618 7.84995 19.1618 8.39481ZM18.3508 13.3784C18.3508 12.834 18.805 12.3917 19.3646 12.3917C19.9242 12.3917 20.3784 12.834 20.3784 13.3784C20.3784 13.9233 19.9242 14.3652 19.3646 14.3652C18.805 14.3652 18.3508 13.9233 18.3508 13.3784Z"
        fill="#BC8401" />
</svg>
    