<svg width="15" height="16" viewBox="0 0 15 16" fill="none" xmlns="http://www.w3.org/2000/svg">
    <path fill-rule="evenodd" clip-rule="evenodd"
        d="M5.68178 0.6461C6.20151 0.555139 6.79218 0.502965 7.41069 0.500123C8.0292 0.49728 8.67409 0.543769 9.29562 0.6461C10.2775 0.807956 11.1046 1.53647 11.1046 2.50627V5.9138C11.1046 6.91303 10.3016 7.73226 9.29562 7.73226H5.68178C4.4548 7.73226 3.42155 8.77413 3.42155 9.95529V11.5902H2.17758C1.12608 11.5902 0.511886 10.8354 0.254702 9.77594C-0.0922282 8.35268 -0.0774935 7.5021 0.254702 6.13902C0.542695 4.94984 1.46342 4.32473 2.51493 4.32473H7.49081V3.87012H3.87276V2.50627C3.87276 1.4736 4.15074 0.913631 5.68178 0.6461ZM6.13299 2.28105C6.13299 1.90383 5.82779 1.59704 5.45407 1.59704C5.07901 1.59704 4.77516 1.90383 4.77516 2.28105C4.77516 2.65693 5.07901 2.96088 5.45407 2.96089C5.82779 2.96089 6.13299 2.65693 6.13299 2.28105Z"
        fill="#8F8F8F" />
    <path fill-rule="evenodd" clip-rule="evenodd"
        d="M11.5558 5.91379V4.32473H12.9137C13.9665 4.32473 14.4628 5.10367 14.7227 6.13902C15.0844 7.577 15.1004 8.65498 14.7227 9.77594C14.357 10.8648 13.9652 11.5902 12.9137 11.5902H7.4908V12.0448H11.1046V13.4087C11.1046 14.4414 10.2065 14.9663 9.29561 15.2272C7.9253 15.6204 6.82704 15.5602 5.68177 15.2272C4.72537 14.9489 3.87275 14.3785 3.87275 13.4087V10.0012C3.87275 9.02066 4.69188 8.1827 5.68177 8.1827H9.29561C10.4998 8.1827 11.5558 7.14578 11.5558 5.91379ZM10.2022 13.6339C10.2022 13.258 9.89838 12.9541 9.52332 12.9541C9.1496 12.9541 8.84441 13.258 8.84441 13.6339C8.84441 14.0111 9.1496 14.3179 9.52332 14.3179C9.89838 14.3179 10.2022 14.0111 10.2022 13.6339Z"
        fill="#8F8F8F" />
</svg>
    