<svg width="16" height="16" viewBox="0 0 16 16" fill="none" xmlns="http://www.w3.org/2000/svg">
    <mask id="mask0_1084_1000" style="mask-type:alpha" maskUnits="userSpaceOnUse" x="0" y="0" width="16" height="16">
    <rect width="16" height="16" fill="#D9D9D9"/>
    </mask>
    <g mask="url(#mask0_1084_1000)">
    <path d="M6.66667 12V10.6667H7.7L9.45 8.66667L7.7 6.66667H6.6L5.53333 12.4C5.44444 12.9 5.23889 13.2917 4.91667 13.575C4.59444 13.8583 4.18333 14 3.68333 14C3.18333 14 2.77778 13.8667 2.46667 13.6C2.15556 13.3333 2 12.9778 2 12.5333C2 12.1778 2.09444 11.8917 2.28333 11.675C2.47222 11.4583 2.71111 11.35 3 11.35C3.27778 11.35 3.51389 11.4444 3.70833 11.6333C3.90278 11.8222 4 12.05 4 12.3167C4 12.3722 3.99722 12.4222 3.99167 12.4667C3.98611 12.5111 3.97778 12.5611 3.96667 12.6167C4.02222 12.6056 4.06944 12.575 4.10833 12.525C4.14722 12.475 4.17778 12.4056 4.2 12.3167L5.23333 6.66667H3.33333V5.33333H5.48333L5.83333 3.43333C5.91111 3.01111 6.11944 2.66667 6.45833 2.4C6.79722 2.13333 7.2 2 7.66667 2C8.15556 2 8.55556 2.14444 8.86667 2.43333C9.17778 2.72222 9.33333 3.08333 9.33333 3.51667C9.33333 3.85 9.23889 4.125 9.05 4.34167C8.86111 4.55833 8.62222 4.66667 8.33333 4.66667C8.05556 4.66667 7.81944 4.57222 7.625 4.38333C7.43056 4.19444 7.33333 3.96111 7.33333 3.68333C7.33333 3.62778 7.33611 3.57778 7.34167 3.53333C7.34722 3.48889 7.35556 3.43889 7.36667 3.38333C7.3 3.40556 7.25 3.43889 7.21667 3.48333C7.18333 3.52778 7.15556 3.59444 7.13333 3.68333L6.85 5.33333H10V6.66667H9.46667L10.3333 7.65L11.2 6.66667H10.6667V5.33333H14V6.66667H12.9667L11.2167 8.66667L12.9667 10.6667H14V12H10.6667V10.6667H11.2L10.3333 9.66667L9.46667 10.6667H10V12H6.66667Z" fill="#BC8401"/>
    </g>
    </svg>
    