<svg width="13" height="16" viewBox="0 0 13 16" fill="none" xmlns="http://www.w3.org/2000/svg">
    <path
        d="M7.50784 15H6.17239V10.4677C5.57524 11.3065 4.71751 11.7258 3.59921 11.7258C2.4049 11.7258 1.48203 11.3065 0.830586 10.4677C0.276862 9.72581 0 8.75269 0 7.54839C0 6.09677 0.374578 4.95699 1.12373 4.12903C1.77517 3.41935 2.61662 3.06452 3.64806 3.06452C4.78808 3.06452 5.67839 3.51075 6.31897 4.40323V3.25806H7.50784V15ZM3.82721 4.30645C3.09977 4.30645 2.50804 4.59677 2.05204 5.17742C1.60689 5.74731 1.38431 6.50538 1.38431 7.45161C1.38431 8.43011 1.63946 9.19893 2.14975 9.75806C2.58404 10.2419 3.14863 10.4839 3.8435 10.4839C4.54922 10.4839 5.1138 10.2097 5.53724 9.66129C5.96068 9.1129 6.17239 8.37634 6.17239 7.45161C6.17239 6.43011 5.93353 5.62903 5.45581 5.04839C5.03237 4.55376 4.48951 4.30645 3.82721 4.30645Z"
        fill="#20A233" />
    <path
        d="M9.02622 0H9.48223C10.2422 0.892473 10.8122 1.93011 11.1923 3.1129C11.5614 4.24194 11.746 5.43548 11.746 6.69355C11.746 7.94086 11.5614 9.11828 11.1923 10.2258C10.8122 11.3871 10.2422 12.3978 9.48223 13.2581H9.02622L8.5865 12.9194C9.19451 12.0161 9.65051 11.0914 9.95452 10.1452C10.3128 9.02688 10.492 7.87097 10.492 6.67742C10.492 5.56989 10.3562 4.51613 10.0848 3.51613C9.74823 2.31183 9.24879 1.25269 8.5865 0.338709L9.02622 0Z"
        fill="#20A233" />
</svg>
    