<svg width="13" height="16" viewBox="0 0 13 16" fill="none" xmlns="http://www.w3.org/2000/svg">
    <path fill-rule="evenodd" clip-rule="evenodd"
        d="M2.8892 13.1818C3.80398 13.7443 4.875 14.0256 6.10227 14.0256C6.62673 14.0256 7.12265 13.9742 7.59004 13.8715L8.69241 15.4999H11.1076L9.47114 13.0825C10.3111 12.5281 10.9694 11.7742 11.446 10.821C11.9517 9.80966 12.2045 8.62784 12.2045 7.27557C12.2045 5.91761 11.9517 4.73011 11.446 3.71307C10.9403 2.69602 10.2301 1.90625 9.31534 1.34375C8.40057 0.78125 7.32955 0.5 6.10227 0.5C4.875 0.5 3.80398 0.78125 2.8892 1.34375C1.97443 1.90625 1.2642 2.69602 0.758523 3.71307C0.252841 4.73011 0 5.91761 0 7.27557C0 8.62784 0.252841 9.80966 0.758523 10.821C1.2642 11.8324 1.97443 12.6193 2.8892 13.1818ZM8.18163 11.1777C8.65714 10.7669 9.01231 10.2332 9.24716 9.5767C9.50284 8.87784 9.63068 8.10795 9.63068 7.26705C9.63068 6.43182 9.50284 5.66477 9.24716 4.96591C8.99716 4.26136 8.6108 3.69602 8.08807 3.26989C7.56534 2.84375 6.90625 2.63068 6.1108 2.63068C5.30966 2.63068 4.64489 2.84375 4.11648 3.26989C3.59375 3.69602 3.20455 4.26136 2.94886 4.96591C2.69886 5.66477 2.57386 6.43182 2.57386 7.26705C2.57386 8.10795 2.69886 8.87784 2.94886 9.5767C3.20455 10.2756 3.59375 10.8352 4.11648 11.2557C4.64489 11.6761 5.30966 11.8864 6.1108 11.8864C6.15591 11.8864 6.20059 11.8857 6.24482 11.8843L4.42761 9.19995H6.84279L8.18163 11.1777Z"
        fill="#20A233" />
</svg>
    