<svg width="20" height="18" viewBox="0 0 20 18" fill="none" xmlns="http://www.w3.org/2000/svg">
    <path fill-rule="evenodd" clip-rule="evenodd"
        d="M7.44601 1C3.63826 1 3.876 2.66003 3.876 2.66003L3.88051 4.37976H7.51426V4.89612H2.43674C2.43674 4.89612 0 4.6179 0 8.48022C0 12.3426 2.127 12.2064 2.127 12.2064H3.39601V10.4135C3.39601 10.4135 3.32775 8.27625 5.48925 8.27625H9.09299C9.09299 8.27625 11.118 8.30838 11.118 6.30823V3.00171C11.118 3.00171 11.4255 1 7.44601 1ZM5.44274 2.15649C5.80424 2.15649 6.09599 2.45045 6.09599 2.81384C6.09599 3.17723 5.80424 3.47046 5.44274 3.47046C5.08124 3.47046 4.78876 3.17723 4.78876 2.81384C4.78876 2.45045 5.08124 2.15649 5.44274 2.15649Z"
        fill="#3b3b3b" />
    <path fill-rule="evenodd" clip-rule="evenodd"
        d="M7.55399 16C11.3625 16 11.1248 14.34 11.1248 14.34L11.1241 14.0819C10.8039 13.6673 10.5898 13.1665 10.5226 12.6202H7.4865V12.1039H10.5035C10.5797 10.5149 11.8921 9.25 13.5 9.25C14.0155 9.25 14.5006 9.38002 14.9244 9.60905C14.9729 9.28858 15 8.92721 15 8.51978C15 4.65744 12.8738 4.79358 12.8738 4.79358H11.604V6.58655C11.604 6.58655 11.6723 8.72375 9.51151 8.72375H5.90701C5.90701 8.72375 3.882 8.69162 3.882 10.6918V13.9983C3.882 13.9983 3.57449 16 7.55399 16ZM9.55799 14.8435C9.19649 14.8435 8.90401 14.5495 8.90401 14.1862C8.90401 13.8228 9.19649 13.5295 9.55799 13.5295C9.91949 13.5295 10.212 13.8228 10.212 14.1862C10.212 14.5495 9.91949 14.8435 9.55799 14.8435Z"
        fill="#3b3b3b" />
    <path
        d="M14.6863 17.5V14.45H11.6863V13.55H14.6863V10.5H15.5863V13.55H18.6863V14.45H15.5863V17.5H14.6863Z"
        fill="#3b3b3b" />
</svg>
    