<svg width="24" height="24" viewBox="0 0 24 24" fill="none" xmlns="http://www.w3.org/2000/svg">
<mask id="mask0_1376_81" style="mask-type:alpha" maskUnits="userSpaceOnUse" x="0" y="0" width="24" height="24">
<rect width="24" height="24" fill="#D9D9D9"/>
</mask>
<g mask="url(#mask0_1376_81)">
<path d="M7.58036 15.8571L10.4196 12.9911L12.3482 14.9196L15.8571 11.4375V13.2857H17.7857V8.14286H12.6429V10.0714H14.4911L12.3482 12.2143L10.4196 10.2857L6.21429 14.4911L7.58036 15.8571ZM4.92857 21C4.39821 21 3.9442 20.8112 3.56652 20.4335C3.18884 20.0558 3 19.6018 3 19.0714V4.92857C3 4.39821 3.18884 3.9442 3.56652 3.56652C3.9442 3.18884 4.39821 3 4.92857 3H19.0714C19.6018 3 20.0558 3.18884 20.4335 3.56652C20.8112 3.9442 21 4.39821 21 4.92857V19.0714C21 19.6018 20.8112 20.0558 20.4335 20.4335C20.0558 20.8112 19.6018 21 19.0714 21H4.92857ZM4.92857 19.0714H19.0714V4.92857H4.92857V19.0714Z" fill="#3B3B3B"/>
</g>
</svg>
