<svg width="20" height="20" viewBox="0 0 20 20" fill="none" xmlns="http://www.w3.org/2000/svg">
    <mask id="mask0_2435_140" style="mask-type:alpha" maskUnits="userSpaceOnUse" x="0" y="0"
        width="20" height="20">
        <rect width="20" height="20" fill="#D9D9D9" />
    </mask>
    <g mask="url(#mask0_2435_140)">
        <path
            d="M10 16.8333C10.9167 16.8333 11.7014 16.5069 12.3542 15.8542C13.007 15.2014 13.3334 14.4167 13.3334 13.5V10.1667C13.3334 9.25 13.007 8.46528 12.3542 7.8125C11.7014 7.15972 10.9167 6.83333 10 6.83333C9.08337 6.83333 8.29865 7.15972 7.64587 7.8125C6.9931 8.46528 6.66671 9.25 6.66671 10.1667V13.5C6.66671 14.4167 6.9931 15.2014 7.64587 15.8542C8.29865 16.5069 9.08337 16.8333 10 16.8333ZM8.33337 14.3333H11.6667V12.6667H8.33337V14.3333ZM8.33337 11H11.6667V9.33333H8.33337V11ZM10 18.5C9.09726 18.5 8.26046 18.2778 7.48962 17.8333C6.71879 17.3889 6.11115 16.7778 5.66671 16H3.33337V14.3333H5.08337C5.04171 14.0556 5.0174 13.7778 5.01046 13.5C5.00351 13.2222 5.00004 12.9444 5.00004 12.6667H3.33337V11H5.00004C5.00004 10.7222 5.00351 10.4444 5.01046 10.1667C5.0174 9.88889 5.04171 9.61111 5.08337 9.33333H3.33337V7.66667H5.66671C5.86115 7.34722 6.0799 7.04861 6.32296 6.77083C6.56601 6.49306 6.84726 6.25 7.16671 6.04167L5.83337 4.66667L7.00004 3.5L8.79171 5.29167C9.1806 5.16667 9.57643 5.10417 9.97921 5.10417C10.382 5.10417 10.7778 5.16667 11.1667 5.29167L13 3.5L14.1667 4.66667L12.7917 6.04167C13.1112 6.25 13.3993 6.48958 13.6563 6.76042C13.9132 7.03125 14.1389 7.33333 14.3334 7.66667H16.6667V9.33333H14.9167C14.9584 9.61111 14.9827 9.88889 14.9896 10.1667C14.9966 10.4444 15 10.7222 15 11H16.6667V12.6667H15C15 12.9444 14.9966 13.2222 14.9896 13.5C14.9827 13.7778 14.9584 14.0556 14.9167 14.3333H16.6667V16H14.3334C13.8889 16.7778 13.2813 17.3889 12.5105 17.8333C11.7396 18.2778 10.9028 18.5 10 18.5Z"
            fill="#212121" />
    </g>
</svg>