<svg width="18" height="18" viewBox="0 0 20 20" fill="none" xmlns="http://www.w3.org/2000/svg">
  <mask id="mask0_497_3524" style="mask-type:alpha" maskUnits="userSpaceOnUse" x="0" y="0"
    width="20" height="20">
    <rect width="20" height="20" fill="#BB8B2D" />
  </mask>
  <g mask="url(#mask0_497_3524)">
    <path
      d="M5.41665 16.6666C4.15276 16.6666 3.0729 16.2291 2.17706 15.3541C1.28123 14.4791 0.833313 13.4096 0.833313 12.1458C0.833313 11.0624 1.1597 10.0971 1.81248 9.24992C2.46526 8.4027 3.31942 7.86103 4.37498 7.62492C4.7222 6.34714 5.41665 5.31242 6.45831 4.52075C7.49998 3.72909 8.68054 3.33325 9.99998 3.33325C11.625 3.33325 13.0035 3.89922 14.1354 5.03117C15.2673 6.16311 15.8333 7.54158 15.8333 9.16658C16.7916 9.2777 17.5868 9.69089 18.2187 10.4062C18.8507 11.1214 19.1666 11.9583 19.1666 12.9166C19.1666 13.9583 18.8021 14.8437 18.0729 15.5728C17.3437 16.302 16.4583 16.6666 15.4166 16.6666H5.41665ZM5.41665 14.9999H15.4166C16 14.9999 16.493 14.7985 16.8958 14.3958C17.2986 13.993 17.5 13.4999 17.5 12.9166C17.5 12.3333 17.2986 11.8402 16.8958 11.4374C16.493 11.0346 16 10.8333 15.4166 10.8333H14.1666V9.16658C14.1666 8.01381 13.7604 7.03117 12.9479 6.21867C12.1354 5.40617 11.1528 4.99992 9.99998 4.99992C8.8472 4.99992 7.86456 5.40617 7.05206 6.21867C6.23956 7.03117 5.83331 8.01381 5.83331 9.16658H5.41665C4.61109 9.16658 3.92359 9.45131 3.35415 10.0208C2.7847 10.5902 2.49998 11.2777 2.49998 12.0833C2.49998 12.8888 2.7847 13.5763 3.35415 14.1458C3.92359 14.7152 4.61109 14.9999 5.41665 14.9999Z"
      fill="#BB8B2D" />
  </g>
</svg>
  