<svg width="24" height="24" viewBox="0 0 24 24" fill="none" xmlns="http://www.w3.org/2000/svg">
<mask id="mask0_1375_121" style="mask-type:alpha" maskUnits="userSpaceOnUse" x="0" y="0" width="24" height="24">
<rect width="24" height="24" fill="#D9D9D9"/>
</mask>
<g mask="url(#mask0_1375_121)">
<path fill-rule="evenodd" clip-rule="evenodd" d="M12.7081 3.05114C11.8404 3.19309 11.2179 3.39883 10.4263 3.80545C9.73359 4.16123 9.21164 4.5472 8.62465 5.13759C7.45982 6.30919 6.75336 7.79212 6.56124 9.46897C6.3751 11.0934 6.83531 12.9612 7.7407 14.256L7.95576 14.5636L5.47788 17.0468C3.07857 19.4512 3 19.5353 3 19.696C3 19.9425 3.07708 20.0547 3.58602 20.5497C4.04271 20.9938 4.05203 21 4.2597 21H4.47028L6.93247 18.5397C8.28669 17.1865 9.40868 16.0793 9.42577 16.0793C9.44286 16.0793 9.61072 16.1802 9.79875 16.3034C10.5501 16.7958 11.6263 17.2215 12.5136 17.3774C13.0733 17.4757 14.0111 17.5075 14.5335 17.446C15.5038 17.3315 16.1489 17.1382 17.0397 16.6951C19.0662 15.6869 20.4586 13.8323 20.9157 11.5321C21.0368 10.9229 21.0253 9.40579 20.895 8.80815C20.5718 7.32492 19.9447 6.17054 18.8884 5.11448C17.8359 4.06216 16.6682 3.42682 15.2102 3.11322C14.6634 2.99556 13.2605 2.96076 12.7081 3.05114ZM15.1978 4.27546C16.3392 4.5649 17.284 5.09735 18.0948 5.90794C18.9113 6.72429 19.4382 7.66286 19.7338 8.82748C19.8434 9.25936 19.8515 9.35667 19.8518 10.236C19.852 11.1299 19.8453 11.206 19.7286 11.6536C19.2854 13.3532 18.2841 14.6911 16.8191 15.541C15.332 16.4036 13.4285 16.5806 11.7608 16.0113C10.3099 15.516 9.00357 14.3666 8.29684 12.9634C8.10195 12.5766 7.8673 11.8841 7.75973 11.3783C7.6508 10.8664 7.6497 9.62617 7.75771 9.09039C8.20619 6.86563 9.81765 5.05816 11.9423 4.3969C12.6715 4.16993 12.9871 4.13013 13.9197 4.14752C14.6374 4.16092 14.8169 4.17889 15.1978 4.27546ZM13.0189 6.34917C13.0189 6.96105 13.011 7.03394 12.942 7.05446C12.8997 7.06702 12.7168 7.13745 12.5355 7.21091C12.0197 7.41995 12.0813 7.43757 11.5954 6.94198C11.3562 6.6981 11.1439 6.50413 11.1236 6.51103C11.1033 6.51793 10.8487 6.76005 10.5578 7.0491L10.029 7.57469L10.501 8.04817L10.9731 8.52161L10.8933 8.65666C10.8495 8.73096 10.7582 8.94369 10.6904 9.12944L10.5674 9.46717L9.9036 9.47929L9.23985 9.49142V10.2811V11.0708H9.91744H10.595L10.6666 11.2795C10.7059 11.3943 10.7951 11.5969 10.8647 11.7298L10.9913 11.9714L10.5005 12.466L10.0098 12.9605L10.5693 13.5199L11.1289 14.0794L11.6319 13.5779L12.1349 13.0764L12.4361 13.2152C12.6017 13.2915 12.8006 13.3666 12.8781 13.3821L13.0189 13.4103V14.1297V14.8492H13.8099H14.6008V14.1278V13.4064L14.8315 13.3309C14.9584 13.2893 15.159 13.2069 15.2773 13.1477L15.4923 13.04L15.9694 13.5155L16.4465 13.991L16.9738 13.4652C17.2638 13.176 17.5011 12.9189 17.5011 12.894C17.5011 12.869 17.2954 12.6437 17.0441 12.3933L16.5872 11.938L16.7363 11.627C16.8182 11.456 16.8975 11.251 16.9124 11.1714L16.9396 11.0268H17.6158H18.292V10.2372V9.44749L17.626 9.43536L16.9601 9.42323L16.8854 9.20356C16.8443 9.08274 16.7597 8.88337 16.6974 8.76048L16.5841 8.53712L17.0426 8.08029C17.2947 7.82907 17.5011 7.60307 17.5011 7.57807C17.5011 7.51972 16.4815 6.50158 16.423 6.50158C16.3988 6.50158 16.1734 6.70781 15.9221 6.95991L15.4653 7.41819L15.2198 7.29438C15.0848 7.22628 14.8903 7.14545 14.7876 7.11469L14.6008 7.05881V6.36284V5.66683H13.8099H13.0189V6.34917ZM14.5232 8.68922C14.8667 8.85837 15.1764 9.17465 15.34 9.52349C15.4442 9.74598 15.4577 9.82748 15.4577 10.236C15.4577 10.6508 15.4455 10.7222 15.3364 10.9443C15.147 11.33 14.9051 11.5732 14.5232 11.7618C14.2058 11.9185 14.1649 11.9275 13.7671 11.9275C13.3803 11.9275 13.3237 11.916 13.0619 11.7847C12.7336 11.62 12.6048 11.5137 12.386 11.2271C11.8181 10.4833 12.0197 9.34191 12.8119 8.81619C13.151 8.59116 13.4123 8.52139 13.8594 8.53637C14.1816 8.54722 14.2812 8.57011 14.5232 8.68922Z" fill="#3B3B3B"/>
</g>
</svg>
