<svg width="24" height="24" viewBox="0 0 24 24" fill="none" xmlns="http://www.w3.org/2000/svg">
    <mask id="mask0_1667_80" style="mask-type:alpha" maskUnits="userSpaceOnUse" x="0" y="0"
        width="24" height="24">
        <rect width="24" height="24" fill="#D9D9D9" />
    </mask>
    <g mask="url(#mask0_1667_80)">
        <path
            d="M12 21C10.755 21 9.585 20.7638 8.49 20.2913C7.395 19.8188 6.4425 19.1775 5.6325 18.3675C4.8225 17.5575 4.18125 16.605 3.70875 15.51C3.23625 14.415 3 13.245 3 12C3 10.755 3.23625 9.585 3.70875 8.49C4.18125 7.395 4.8225 6.4425 5.6325 5.6325C6.4425 4.8225 7.395 4.18125 8.49 3.70875C9.585 3.23625 10.755 3 12 3C13.245 3 14.415 3.23625 15.51 3.70875C16.605 4.18125 17.5575 4.8225 18.3675 5.6325C19.1775 6.4425 19.8188 7.395 20.2913 8.49C20.7638 9.585 21 10.755 21 12C21 13.245 20.7638 14.415 20.2913 15.51C19.8188 16.605 19.1775 17.5575 18.3675 18.3675C17.5575 19.1775 16.605 19.8188 15.51 20.2913C14.415 20.7638 13.245 21 12 21ZM12 19.2C14.01 19.2 15.7125 18.5025 17.1075 17.1075C18.5025 15.7125 19.2 14.01 19.2 12C19.2 9.99 18.5025 8.2875 17.1075 6.8925C15.7125 5.4975 14.01 4.8 12 4.8C9.99 4.8 8.2875 5.4975 6.8925 6.8925C5.4975 8.2875 4.8 9.99 4.8 12C4.8 14.01 5.4975 15.7125 6.8925 17.1075C8.2875 18.5025 9.99 19.2 12 19.2ZM12 17.4C10.5 17.4 9.225 16.875 8.175 15.825C7.125 14.775 6.6 13.5 6.6 12C6.6 10.5 7.125 9.225 8.175 8.175C9.225 7.125 10.5 6.6 12 6.6C13.5 6.6 14.775 7.125 15.825 8.175C16.875 9.225 17.4 10.5 17.4 12C17.4 13.5 16.875 14.775 15.825 15.825C14.775 16.875 13.5 17.4 12 17.4ZM12 15.6C12.99 15.6 13.8375 15.2475 14.5425 14.5425C15.2475 13.8375 15.6 12.99 15.6 12C15.6 11.01 15.2475 10.1625 14.5425 9.4575C13.8375 8.7525 12.99 8.4 12 8.4C11.01 8.4 10.1625 8.7525 9.4575 9.4575C8.7525 10.1625 8.4 11.01 8.4 12C8.4 12.99 8.7525 13.8375 9.4575 14.5425C10.1625 15.2475 11.01 15.6 12 15.6ZM12 13.8C11.505 13.8 11.0813 13.6238 10.7288 13.2713C10.3763 12.9188 10.2 12.495 10.2 12C10.2 11.505 10.3763 11.0813 10.7288 10.7288C11.0813 10.3763 11.505 10.2 12 10.2C12.495 10.2 12.9188 10.3763 13.2713 10.7288C13.6238 11.0813 13.8 11.505 13.8 12C13.8 12.495 13.6238 12.9188 13.2713 13.2713C12.9188 13.6238 12.495 13.8 12 13.8Z"
            fill="#3B3B3B" />
    </g>
</svg>