<svg id="Layer_1" data-name="Layer 1" xmlns="http://www.w3.org/2000/svg" viewBox="0 0 16 16">
    <defs>
        <style>
            .cls-1,.cls-3{fill:#c1d9ef;}.cls-2{fill:#1b4a68;}.cls-3{stroke:#1b4a68;stroke-linejoin:bevel;}</style>
    </defs>
    <title>icon</title>
    <rect class="cls-1" x="0.5" y="0.5" width="11" height="14" />
    <path class="cls-2" d="M11,1V14H1V1H11m1-1H0V15H12V0Z" />
    <rect class="cls-2" x="3" y="3" width="6" height="1" />
    <rect class="cls-2" x="3" y="5" width="6" height="1" />
    <rect class="cls-2" x="3" y="7" width="6" height="1" />
    <rect class="cls-2" x="3" y="9" width="6" height="1" />
    <rect class="cls-2" x="3" y="11" width="6" height="1" />
    <path class="cls-3" d="M12,.56a2.23,2.23,0,0,1,2.22,2.22h0A2.23,2.23,0,0,1,12,5" />
    <path class="cls-3" d="M12,5.56a2.23,2.23,0,0,1,2.22,2.22h0A2.23,2.23,0,0,1,12,10" />
    <path class="cls-3" d="M12,10a2.23,2.23,0,0,1,2.22,2.22h0A2.23,2.23,0,0,1,12,14.44" />
</svg>