<svg id="Layer_1" data-name="Layer 1" xmlns="http://www.w3.org/2000/svg" viewBox="0 0 16 16">
    <defs>
        <style>.cls-1{fill:#c1d9ef;}.cls-2{fill:#1b4a68;}</style>
    </defs>
    <title>icon</title>
    <rect class="cls-1" x="0.5" y="0.5" width="14" height="14" />
    <path class="cls-2" d="M14,1V14H1V1H14m1-1H0V15H15V0Z" />
    <path class="cls-2"
        d="M5.75,5.5a3.87,3.87,0,0,1,1-2,2.37,2.37,0,0,1,1.54-.76c.4,0,.69.17.69.39a.88.88,0,0,1-.44.57c-.09,0-.14,0-.2,0a1.11,1.11,0,0,0-.71-.53c-.22,0-.45.19-.8,2.33h.92l-.14.25c-.3,0-.52,0-.83,0-.14.72-.3,1.72-.51,2.79-.39,1.91-.84,2.25-1.53,2.84a1.93,1.93,0,0,1-1.09.49c-.35,0-.63-.17-.63-.41a.74.74,0,0,1,.37-.58c.07,0,.13-.05.19,0,.32.31.57.47.77.47.43,0,.47-.7.77-2.31.21-1.19.38-2.17.6-3.29H5l0,0,.18-.23Z" />
    <path class="cls-2"
        d="M7.78,6.43c.5-.65,1-1,1.31-1s.43.31.58.82l.19.63c.8-1.08,1.16-1.45,1.51-1.45a.4.4,0,0,1,.41.44c0,.26-.29.58-.46.58a.2.2,0,0,1-.17-.12c-.1-.13-.15-.2-.28-.2s-.41.24-.95,1l.38,1.17c.13.4.25.64.4.64s.33-.13.69-.51l.07.12c-.55.78-1.09,1.1-1.42,1.1s-.46-.31-.63-.85l-.26-.81C8.23,9.14,8,9.57,7.49,9.57a.4.4,0,0,1-.4-.45.7.7,0,0,1,.5-.62c.16,0,.24.3.4.3s.51-.3,1.09-1.12l-.27-.85c-.17-.54-.26-.69-.36-.69s-.27.05-.58.4Z" />
</svg>