<svg width="18" height="18" viewBox="0 0 20 14" fill="none" xmlns="http://www.w3.org/2000/svg">
  <path d="M5.41666 13.6666C4.15277 13.6666 3.07291 13.2291 2.17708 12.3541C1.28124 11.4791 0.833328 10.4096 0.833328 9.14575C0.833328 8.06242 1.15972 7.09714 1.81249 6.24992C2.46527 5.4027 3.31944 4.86103 4.37499 4.62492C4.72222 3.34714 5.41666 2.31242 6.45833 1.52075C7.5 0.729085 8.68055 0.333252 10 0.333252C11.625 0.333252 13.0035 0.899224 14.1354 2.03117C15.2674 3.16311 15.8333 4.54158 15.8333 6.16658C16.7917 6.2777 17.5868 6.69089 18.2187 7.40617C18.8507 8.12145 19.1667 8.95825 19.1667 9.91658C19.1667 10.9583 18.8021 11.8437 18.0729 12.5728C17.3437 13.302 16.4583 13.6666 15.4167 13.6666H5.41666ZM5.41666 11.9999H15.4167C16 11.9999 16.4931 11.7985 16.8958 11.3958C17.2986 10.993 17.5 10.4999 17.5 9.91658C17.5 9.33325 17.2986 8.8402 16.8958 8.43742C16.4931 8.03464 16 7.83325 15.4167 7.83325H14.1667V6.16658C14.1667 5.01381 13.7604 4.03117 12.9479 3.21867C12.1354 2.40617 11.1528 1.99992 10 1.99992C8.84722 1.99992 7.86458 2.40617 7.05208 3.21867C6.23958 4.03117 5.83333 5.01381 5.83333 6.16658H5.41666C4.61111 6.16658 3.92361 6.45131 3.35416 7.02075C2.78472 7.5902 2.49999 8.2777 2.49999 9.08325C2.49999 9.88881 2.78472 10.5763 3.35416 11.1458C3.92361 11.7152 4.61111 11.9999 5.41666 11.9999Z" fill="#8F8F8F" fill-opacity="0.7"/>
  </svg>
  