<svg width="24" height="24" viewBox="0 0 24 24" fill="none" xmlns="http://www.w3.org/2000/svg">
<mask id="mask0_1375_111" style="mask-type:alpha" maskUnits="userSpaceOnUse" x="0" y="0" width="24" height="24">
<rect width="24" height="24" fill="#D9D9D9"/>
</mask>
<g mask="url(#mask0_1375_111)">
<path d="M5 21V16.0909H7.04545V14.4545H5V9.54545H7.04545V7.90909H5V3H10.7273V7.90909H8.68182V9.54545H10.7273V11.1818H13.1818V9.54545H18.9091V14.4545H13.1818V12.8182H10.7273V14.4545H8.68182V16.0909H10.7273V21H5ZM6.63636 19.3636H9.09091V17.7273H6.63636V19.3636ZM6.63636 12.8182H9.09091V11.1818H6.63636V12.8182ZM14.8182 12.8182H17.2727V11.1818H14.8182V12.8182ZM6.63636 6.27273H9.09091V4.63636H6.63636V6.27273Z" fill="#3B3B3B"/>
</g>
</svg>
