<svg
    viewBox="0 0 24 24"
    xmlns="http://www.w3.org/2000/svg">
    <path
        d="m 14.09818,21.625617 h -1.713937 v -5.816824 c -0.766393,1.076529 -1.867216,1.614665 -3.3024605,1.614665 -1.5327963,0 -2.717222,-0.538136 -3.5532955,-1.614665 C 4.8178289,14.85664 4.4625,13.607722 4.4625,12.062105 4.4625,10.199072 4.9432392,8.7362615 5.9047127,7.6736448 6.7407809,6.7628303 7.820711,6.307436 9.1444772,6.307436 c 1.4631188,0 2.6057578,0.5726986 3.4278878,1.7181214 V 6.5558283 H 14.09818 Z M 9.3744011,7.9013484 c -0.9336077,0 -1.6930434,0.3726012 -2.2782809,1.1178165 C 6.5248078,9.7505709 6.239145,10.72349 6.239145,11.937895 c 0,1.255823 0.3274635,2.242538 0.9823778,2.960135 0.5573745,0.620968 1.2819782,0.931554 2.1737851,0.931554 0.9057311,0 1.6303231,-0.351913 2.1737721,-1.055751 0.54345,-0.703812 0.815163,-1.649124 0.815163,-2.835938 0,-1.311008 -0.306558,-2.3391269 -0.919671,-3.0843292 C 10.921123,8.2187499 10.224408,7.9013485 9.3744011,7.9013484 Z"
        fill="#0F7C10"
        id="path1"
        style="stroke-width:1.28342" />
    <path
        d="m 16.046893,2.3743828 h 0.585249 c 0.975357,1.1454137 1.706905,2.4771336 2.194732,3.9951449 0.473707,1.4490276 0.710626,2.9808355 0.710626,4.5954623 0,1.600817 -0.236919,3.111936 -0.710626,4.533344 -0.487827,1.490432 -1.219375,2.78758 -2.194732,3.891702 h -0.585249 l -0.564345,-0.434693 c 0.78033,-1.159309 1.365568,-2.346084 1.755739,-3.560452 0.459821,-1.435268 0.689809,-2.918782 0.689809,-4.450604 0,-1.4214201 -0.174287,-2.773832 -0.522607,-4.0572476 C 16.973531,5.3414219 16.332542,3.9821051 15.482548,2.8090872 Z"
        fill="#0F7C10"
        id="path2"
        style="stroke-width:1.28342" />
</svg>
    