<svg width="24" height="24" viewBox="0 0 24 24" fill="none" xmlns="http://www.w3.org/2000/svg">
    <mask id="mask0_1693_148" style="mask-type:alpha" maskUnits="userSpaceOnUse" x="0" y="0"
        width="24" height="24">
        <rect width="24" height="24" fill="#D9D9D9" />
    </mask>
    <g mask="url(#mask0_1693_148)">
        <path
            d="M12 13.3455C11.3864 13.3455 10.8648 13.1307 10.4352 12.7011C10.0057 12.2716 9.79091 11.75 9.79091 11.1364C9.79091 10.5227 10.0057 10.0011 10.4352 9.57159C10.8648 9.14205 11.3864 8.92727 12 8.92727C12.6136 8.92727 13.1352 9.14205 13.5648 9.57159C13.9943 10.0011 14.2091 10.5227 14.2091 11.1364C14.2091 11.75 13.9943 12.2716 13.5648 12.7011C13.1352 13.1307 12.6136 13.3455 12 13.3455ZM12 17.2727C10.0091 17.2727 8.19546 16.717 6.55909 15.6057C4.92273 14.4943 3.73636 13.0045 3 11.1364C3.73636 9.26818 4.92273 7.77841 6.55909 6.66705C8.19546 5.55568 10.0091 5 12 5C13.9227 5 15.6784 5.51818 17.267 6.55455C18.8557 7.59091 20.0455 8.98182 20.8364 10.7273H18.975C18.2659 9.45909 17.2909 8.46023 16.05 7.73068C14.8091 7.00114 13.4591 6.63636 12 6.63636C10.4591 6.63636 9.04432 7.04205 7.75568 7.85341C6.46705 8.66477 5.48182 9.75909 4.8 11.1364C5.48182 12.5136 6.46705 13.608 7.75568 14.4193C9.04432 15.2307 10.4591 15.6364 12 15.6364C12.2727 15.6364 12.5455 15.6227 12.8182 15.5955C13.0909 15.5682 13.3636 15.5273 13.6364 15.4727V17.1295C13.3636 17.1705 13.0909 17.2045 12.8182 17.2318C12.5455 17.2591 12.2727 17.2727 12 17.2727ZM12 14.8182C12.3 14.8182 12.5898 14.7841 12.8693 14.7159C13.1489 14.6477 13.4114 14.5523 13.6568 14.4295C13.725 13.7477 13.9398 13.1341 14.3011 12.5886C14.6625 12.0432 15.1227 11.6068 15.6818 11.2795V11.1364C15.6818 10.1136 15.3239 9.24432 14.608 8.52841C13.892 7.8125 13.0227 7.45455 12 7.45455C10.9773 7.45455 10.108 7.8125 9.39205 8.52841C8.67614 9.24432 8.31818 10.1136 8.31818 11.1364C8.31818 12.1591 8.67614 13.0284 9.39205 13.7443C10.108 14.4602 10.9773 14.8182 12 14.8182Z"
            fill="#3B3B3B" />
        <path
            d="M19.9227 18.9091L17.5909 16.5773L16.9091 18.6364L15.2727 13.1818L20.7273 14.8182L18.6682 15.5L21 17.8318L19.9227 18.9091Z"
            fill="#3B3B3B" />
    </g>
</svg>
    