<svg width="24" height="24" viewBox="0 0 24 24" fill="none" xmlns="http://www.w3.org/2000/svg">
<mask id="mask0_1375_105" style="mask-type:alpha" maskUnits="userSpaceOnUse" x="0" y="0" width="24" height="24">
<rect width="24" height="24" fill="#D9D9D9"/>
</mask>
<g mask="url(#mask0_1375_105)">
<path d="M11.013 18.8026V12.4909L5.68312 9.4052V15.7169L11.013 18.8026ZM12.6961 18.8026L18.026 15.7403V9.42857L12.6961 12.4909V18.8026ZM11.013 20.7662L4.84156 17.1896C4.57506 17.0356 4.36818 16.8326 4.22091 16.5804C4.07364 16.3284 4 16.0484 4 15.7403V8.25974C4 7.95164 4.07364 7.67158 4.22091 7.41958C4.36818 7.16743 4.57506 6.96436 4.84156 6.81039L11.013 3.23377C11.2799 3.07792 11.561 3 11.8562 3C12.1512 3 12.4312 3.07792 12.6961 3.23377L18.8675 6.81039C19.134 6.96436 19.3409 7.16743 19.4882 7.41958C19.6355 7.67158 19.7091 7.95164 19.7091 8.25974V15.7403C19.7091 16.0484 19.6355 16.3284 19.4882 16.5804C19.3409 16.8326 19.134 17.0356 18.8675 17.1896L12.6961 20.7662C12.4291 20.9221 12.1481 21 11.8529 21C11.5579 21 11.2779 20.9221 11.013 20.7662ZM15.4078 8.96104L17.3481 7.86234L11.8312 4.70649L9.96104 5.80519L15.4078 8.96104ZM11.8545 11.0182L13.7714 9.91948L8.23117 6.78701L6.36104 7.86234L11.8545 11.0182Z" fill="#CCCCCC"/>
</g>
</svg>
